<?xml version="1.0" encoding="UTF-8" standalone="no"?>
<!DOCTYPE svg PUBLIC "-//W3C//DTD SVG 1.1//EN"
 "http://www.w3.org/Graphics/SVG/1.1/DTD/svg11.dtd">
<!-- Generated by graphviz version 14.1.2 (20260124.0452)
 -->
<!-- Title: G Pages: 1 -->
<svg width="677pt" height="67pt"
 viewBox="0.00 0.00 677.00 67.00" xmlns="http://www.w3.org/2000/svg" xmlns:xlink="http://www.w3.org/1999/xlink">
<g id="graph0" class="graph" transform="scale(1 1) rotate(0) translate(21.6 45.35)">
<title>G</title>
<polygon fill="#111111" stroke="none" points="-21.6,21.6 -21.6,-45.35 655.6,-45.35 655.6,21.6 -21.6,21.6"/>
<!-- controllers/todoController.js -->
<g id="node1" class="node">
<title>controllers/todoController.js</title>
<path fill="none" stroke="#c6c5fe" d="M436.08,-23.75C436.08,-23.75 272.42,-23.75 272.42,-23.75 268.46,-23.75 264.5,-19.79 264.5,-15.83 264.5,-15.83 264.5,-7.92 264.5,-7.92 264.5,-3.96 268.46,0 272.42,0 272.42,0 436.08,0 436.08,0 440.04,0 444,-3.96 444,-7.92 444,-7.92 444,-15.83 444,-15.83 444,-19.79 440.04,-23.75 436.08,-23.75"/>
<text xml:space="preserve" text-anchor="middle" x="354.25" y="-6.45" font-family="Arial" font-size="14.00" fill="#c6c5fe">controllers/todoController.js</text>
</g>
<!-- services/todoService.js -->
<g id="node2" class="node">
<title>services/todoService.js</title>
<path fill="none" stroke="#cfffac" d="M626.08,-23.75C626.08,-23.75 487.92,-23.75 487.92,-23.75 483.96,-23.75 480,-19.79 480,-15.83 480,-15.83 480,-7.92 480,-7.92 480,-3.96 483.96,0 487.92,0 487.92,0 626.08,0 626.08,0 630.04,0 634,-3.96 634,-7.92 634,-7.92 634,-15.83 634,-15.83 634,-19.79 630.04,-23.75 626.08,-23.75"/>
<text xml:space="preserve" text-anchor="middle" x="557" y="-6.45" font-family="Arial" font-size="14.00" fill="#cfffac">services/todoService.js</text>
</g>
<!-- controllers/todoController.js&#45;&gt;services/todoService.js -->
<g id="edge1" class="edge">
<title>controllers/todoController.js&#45;&gt;services/todoService.js</title>
<path fill="none" stroke="#757575" d="M444.47,-11.88C452.35,-11.88 460.32,-11.88 468.19,-11.88"/>
<polygon fill="#757575" stroke="#757575" points="468.11,-15.38 478.11,-11.88 468.11,-8.38 468.11,-15.38"/>
</g>
<!-- main.js -->
<g id="node3" class="node">
<title>main.js</title>
<path fill="none" stroke="#c6c5fe" d="M51.58,-23.75C51.58,-23.75 7.92,-23.75 7.92,-23.75 3.96,-23.75 0,-19.79 0,-15.83 0,-15.83 0,-7.92 0,-7.92 0,-3.96 3.96,0 7.92,0 7.92,0 51.58,0 51.58,0 55.54,0 59.5,-3.96 59.5,-7.92 59.5,-7.92 59.5,-15.83 59.5,-15.83 59.5,-19.79 55.54,-23.75 51.58,-23.75"/>
<text xml:space="preserve" text-anchor="middle" x="29.75" y="-6.45" font-family="Arial" font-size="14.00" fill="#c6c5fe">main.js</text>
</g>
<!-- routes/todoRoute.js -->
<g id="node4" class="node">
<title>routes/todoRoute.js</title>
<path fill="none" stroke="#c6c5fe" d="M220.58,-23.75C220.58,-23.75 103.42,-23.75 103.42,-23.75 99.46,-23.75 95.5,-19.79 95.5,-15.83 95.5,-15.83 95.5,-7.92 95.5,-7.92 95.5,-3.96 99.46,0 103.42,0 103.42,0 220.58,0 220.58,0 224.54,0 228.5,-3.96 228.5,-7.92 228.5,-7.92 228.5,-15.83 228.5,-15.83 228.5,-19.79 224.54,-23.75 220.58,-23.75"/>
<text xml:space="preserve" text-anchor="middle" x="162" y="-6.45" font-family="Arial" font-size="14.00" fill="#c6c5fe">routes/todoRoute.js</text>
</g>
<!-- main.js&#45;&gt;routes/todoRoute.js -->
<g id="edge2" class="edge">
<title>main.js&#45;&gt;routes/todoRoute.js</title>
<path fill="none" stroke="#757575" d="M59.98,-11.88C67.2,-11.88 75.27,-11.88 83.63,-11.88"/>
<polygon fill="#757575" stroke="#757575" points="83.63,-15.38 93.63,-11.88 83.63,-8.38 83.63,-15.38"/>
</g>
<!-- routes/todoRoute.js&#45;&gt;controllers/todoController.js -->
<g id="edge3" class="edge">
<title>routes/todoRoute.js&#45;&gt;controllers/todoController.js</title>
<path fill="none" stroke="#757575" d="M228.74,-11.88C236.48,-11.88 244.5,-11.88 252.58,-11.88"/>
<polygon fill="#757575" stroke="#757575" points="252.5,-15.38 262.5,-11.88 252.5,-8.38 252.5,-15.38"/>
</g>
</g>
</svg>
