<?xml version="1.0" encoding="UTF-8" standalone="no"?>
<!-- Generated by graphviz version 14.1.2 (20260124.0452)
 -->
<!-- Title: G Pages: 1 -->
<svg width="666pt" height="67pt"
 viewBox="0.00 0.00 666.00 67.00" xmlns="http://www.w3.org/2000/svg" xmlns:xlink="http://www.w3.org/1999/xlink">
<g id="graph0" class="graph" transform="scale(1 1) rotate(0) translate(21.6 45.35)">
<title>G</title>
<polygon fill="#111111" stroke="none" points="-21.6,21.6 -21.6,-45.35 644.35,-45.35 644.35,21.6 -21.6,21.6"/>
<!-- controllers/appController.js -->
<g id="node1" class="node">
<title>controllers/appController.js</title>
<path fill="none" stroke="#c6c5fe" d="M428.58,-23.75C428.58,-23.75 268.67,-23.75 268.67,-23.75 264.71,-23.75 260.75,-19.79 260.75,-15.83 260.75,-15.83 260.75,-7.92 260.75,-7.92 260.75,-3.96 264.71,0 268.67,0 268.67,0 428.58,0 428.58,0 432.54,0 436.5,-3.96 436.5,-7.92 436.5,-7.92 436.5,-15.83 436.5,-15.83 436.5,-19.79 432.54,-23.75 428.58,-23.75"/>
<text xml:space="preserve" text-anchor="middle" x="348.62" y="-6.45" font-family="Arial" font-size="14.00" fill="#c6c5fe">controllers/appController.js</text>
</g>
<!-- services/appService.js -->
<g id="node2" class="node">
<title>services/appService.js</title>
<path fill="none" stroke="#cfffac" d="M614.83,-23.75C614.83,-23.75 480.42,-23.75 480.42,-23.75 476.46,-23.75 472.5,-19.79 472.5,-15.83 472.5,-15.83 472.5,-7.92 472.5,-7.92 472.5,-3.96 476.46,0 480.42,0 480.42,0 614.83,0 614.83,0 618.79,0 622.75,-3.96 622.75,-7.92 622.75,-7.92 622.75,-15.83 622.75,-15.83 622.75,-19.79 618.79,-23.75 614.83,-23.75"/>
<text xml:space="preserve" text-anchor="middle" x="547.62" y="-6.45" font-family="Arial" font-size="14.00" fill="#cfffac">services/appService.js</text>
</g>
<!-- controllers/appController.js&#45;&gt;services/appService.js -->
<g id="edge1" class="edge">
<title>controllers/appController.js&#45;&gt;services/appService.js</title>
<path fill="none" stroke="#757575" d="M436.89,-11.88C444.78,-11.88 452.76,-11.88 460.63,-11.88"/>
<polygon fill="#757575" stroke="#757575" points="460.55,-15.38 470.55,-11.88 460.55,-8.38 460.55,-15.38"/>
</g>
<!-- main.js -->
<g id="node3" class="node">
<title>main.js</title>
<path fill="none" stroke="#c6c5fe" d="M51.58,-23.75C51.58,-23.75 7.92,-23.75 7.92,-23.75 3.96,-23.75 0,-19.79 0,-15.83 0,-15.83 0,-7.92 0,-7.92 0,-3.96 3.96,0 7.92,0 7.92,0 51.58,0 51.58,0 55.54,0 59.5,-3.96 59.5,-7.92 59.5,-7.92 59.5,-15.83 59.5,-15.83 59.5,-19.79 55.54,-23.75 51.58,-23.75"/>
<text xml:space="preserve" text-anchor="middle" x="29.75" y="-6.45" font-family="Arial" font-size="14.00" fill="#c6c5fe">main.js</text>
</g>
<!-- routes/appRoute.js -->
<g id="node4" class="node">
<title>routes/appRoute.js</title>
<path fill="none" stroke="#c6c5fe" d="M216.83,-23.75C216.83,-23.75 103.42,-23.75 103.42,-23.75 99.46,-23.75 95.5,-19.79 95.5,-15.83 95.5,-15.83 95.5,-7.92 95.5,-7.92 95.5,-3.96 99.46,0 103.42,0 103.42,0 216.83,0 216.83,0 220.79,0 224.75,-3.96 224.75,-7.92 224.75,-7.92 224.75,-15.83 224.75,-15.83 224.75,-19.79 220.79,-23.75 216.83,-23.75"/>
<text xml:space="preserve" text-anchor="middle" x="160.12" y="-6.45" font-family="Arial" font-size="14.00" fill="#c6c5fe">routes/appRoute.js</text>
</g>
<!-- main.js&#45;&gt;routes/appRoute.js -->
<g id="edge2" class="edge">
<title>main.js&#45;&gt;routes/appRoute.js</title>
<path fill="none" stroke="#757575" d="M59.88,-11.88C67.1,-11.88 75.18,-11.88 83.52,-11.88"/>
<polygon fill="#757575" stroke="#757575" points="83.49,-15.38 93.49,-11.88 83.49,-8.38 83.49,-15.38"/>
</g>
<!-- routes/appRoute.js&#45;&gt;controllers/appController.js -->
<g id="edge3" class="edge">
<title>routes/appRoute.js&#45;&gt;controllers/appController.js</title>
<path fill="none" stroke="#757575" d="M225.05,-11.88C232.79,-11.88 240.83,-11.88 248.92,-11.88"/>
<polygon fill="#757575" stroke="#757575" points="248.87,-15.38 258.87,-11.88 248.87,-8.38 248.87,-15.38"/>
</g>
</g>
</svg>
